<svg width="1200" height="720" viewBox="0 0 1200 720" fill="none" xmlns="http://www.w3.org/2000/svg">
<rect width="1200" height="720" rx="40" fill="url(#paint0_linear_1_5)"/>
<rect x="44" y="36" width="1112" height="648" rx="32" fill="url(#paint1_linear_1_5)" stroke="white" stroke-opacity="0.1" stroke-width="2"/>
<rect x="80" y="88" width="1040" height="544" rx="28" fill="#0A1224" fill-opacity="0.9" stroke="white" stroke-opacity="0.06" stroke-width="2"/>
<rect x="118" y="130" width="200" height="54" rx="14" fill="#22D3EE" fill-opacity="0.15"/>
<rect x="118" y="202" width="200" height="54" rx="14" fill="#22D3EE" fill-opacity="0.12"/>
<rect x="118" y="274" width="200" height="54" rx="14" fill="#22D3EE" fill-opacity="0.12"/>
<rect x="118" y="346" width="200" height="54" rx="14" fill="#22D3EE" fill-opacity="0.12"/>
<rect x="118" y="418" width="200" height="54" rx="14" fill="#22D3EE" fill-opacity="0.12"/>
<rect x="118" y="490" width="200" height="54" rx="14" fill="#22D3EE" fill-opacity="0.12"/>
<rect x="118" y="562" width="200" height="54" rx="14" fill="#22D3EE" fill-opacity="0.12"/>
<rect x="360" y="130" width="752" height="486" rx="26" fill="url(#paint2_linear_1_5)" stroke="white" stroke-opacity="0.05" stroke-width="2"/>
<rect x="394" y="172" width="340" height="114" rx="20" fill="#0EA5E9" fill-opacity="0.14"/>
<rect x="394" y="322" width="340" height="58" rx="16" fill="#0EA5E9" fill-opacity="0.12"/>
<rect x="394" y="408" width="340" height="58" rx="16" fill="#0EA5E9" fill-opacity="0.12"/>
<rect x="394" y="494" width="340" height="58" rx="16" fill="#0EA5E9" fill-opacity="0.12"/>
<rect x="766" y="172" width="300" height="70" rx="18" fill="#34D399" fill-opacity="0.18"/>
<rect x="766" y="272" width="300" height="70" rx="18" fill="#34D399" fill-opacity="0.14"/>
<rect x="766" y="372" width="300" height="70" rx="18" fill="#34D399" fill-opacity="0.14"/>
<rect x="766" y="472" width="300" height="70" rx="18" fill="#34D399" fill-opacity="0.14"/>
<rect x="474" y="194" width="180" height="14" rx="7" fill="#C8F7FF" fill-opacity="0.6"/>
<rect x="474" y="226" width="140" height="12" rx="6" fill="#C8F7FF" fill-opacity="0.5"/>
<rect x="474" y="258" width="120" height="10" rx="5" fill="#C8F7FF" fill-opacity="0.4"/>
<circle cx="876" cy="206" r="22" fill="#5EF1CE" fill-opacity="0.7"/>
<circle cx="876" cy="306" r="22" fill="#5EF1CE" fill-opacity="0.6"/>
<circle cx="876" cy="406" r="22" fill="#5EF1CE" fill-opacity="0.5"/>
<circle cx="876" cy="506" r="22" fill="#5EF1CE" fill-opacity="0.4"/>
<path d="M318 170C362 170 392 210 410 260" stroke="#22D3EE" stroke-width="6" stroke-linecap="round" stroke-dasharray="10 14" stroke-opacity="0.6"/>
<path d="M318 242C372 242 390 302 410 344" stroke="#22D3EE" stroke-width="6" stroke-linecap="round" stroke-dasharray="10 14" stroke-opacity="0.6"/>
<path d="M318 314C362 314 392 354 410 404" stroke="#22D3EE" stroke-width="6" stroke-linecap="round" stroke-dasharray="10 14" stroke-opacity="0.6"/>
<path d="M318 386C372 386 392 446 410 488" stroke="#22D3EE" stroke-width="6" stroke-linecap="round" stroke-dasharray="10 14" stroke-opacity="0.6"/>
<path d="M318 458C362 458 392 498 410 548" stroke="#22D3EE" stroke-width="6" stroke-linecap="round" stroke-dasharray="10 14" stroke-opacity="0.6"/>
<path d="M318 530C352 530 382 570 400 610" stroke="#22D3EE" stroke-width="6" stroke-linecap="round" stroke-dasharray="10 14" stroke-opacity="0.6"/>
<defs>
<linearGradient id="paint0_linear_1_5" x1="112" y1="74" x2="1080" y2="640" gradientUnits="userSpaceOnUse">
<stop stop-color="#0EA5E9"/>
<stop offset="1" stop-color="#020617"/>
</linearGradient>
<linearGradient id="paint1_linear_1_5" x1="600" y1="36" x2="600" y2="684" gradientUnits="userSpaceOnUse">
<stop stop-color="white" stop-opacity="0.08"/>
<stop offset="1" stop-color="white" stop-opacity="0.03"/>
</linearGradient>
<linearGradient id="paint2_linear_1_5" x1="736" y1="130" x2="736" y2="616" gradientUnits="userSpaceOnUse">
<stop stop-color="#0C2141" stop-opacity="0.9"/>
<stop offset="1" stop-color="#0A1329" stop-opacity="0.9"/>
</linearGradient>
</defs>
</svg>
