<svg width="1200" height="720" viewBox="0 0 1200 720" fill="none" xmlns="http://www.w3.org/2000/svg">
<rect width="1200" height="720" rx="40" fill="url(#paint0_linear_1_3)"/>
<rect x="40" y="36" width="1120" height="648" rx="32" fill="url(#paint1_linear_1_3)" stroke="white" stroke-opacity="0.1" stroke-width="2"/>
<rect x="72" y="72" width="1056" height="96" rx="20" fill="#0B1225" fill-opacity="0.65" stroke="white" stroke-opacity="0.05" stroke-width="2"/>
<rect x="96" y="104" width="140" height="32" rx="12" fill="#22D3EE" fill-opacity="0.7"/>
<rect x="256" y="104" width="110" height="32" rx="12" fill="#0EA5E9" fill-opacity="0.35"/>
<rect x="924" y="104" width="180" height="32" rx="16" fill="#38BDF8" fill-opacity="0.2"/>
<rect x="72" y="196" width="460" height="448" rx="26" fill="url(#paint2_linear_1_3)" stroke="white" stroke-opacity="0.06" stroke-width="2"/>
<rect x="562" y="196" width="566" height="208" rx="26" fill="url(#paint3_linear_1_3)" stroke="white" stroke-opacity="0.06" stroke-width="2"/>
<rect x="562" y="428" width="566" height="216" rx="26" fill="url(#paint4_linear_1_3)" stroke="white" stroke-opacity="0.06" stroke-width="2"/>
<rect x="96" y="228" width="412" height="96" rx="18" fill="#0EA5E9" fill-opacity="0.12"/>
<rect x="96" y="344" width="412" height="24" rx="12" fill="#22D3EE" fill-opacity="0.4"/>
<rect x="96" y="384" width="260" height="22" rx="11" fill="#22D3EE" fill-opacity="0.3"/>
<rect x="96" y="468" width="412" height="160" rx="20" fill="#0EA5E9" fill-opacity="0.08"/>
<circle cx="724" cy="300" r="80" fill="url(#paint5_radial_1_3)"/>
<circle cx="940" cy="300" r="80" fill="url(#paint6_radial_1_3)"/>
<rect x="594" y="460" width="228" height="48" rx="14" fill="#22D3EE" fill-opacity="0.2"/>
<rect x="594" y="528" width="440" height="20" rx="10" fill="#22D3EE" fill-opacity="0.25"/>
<rect x="594" y="564" width="320" height="18" rx="9" fill="#22D3EE" fill-opacity="0.2"/>
<rect x="594" y="598" width="260" height="16" rx="8" fill="#22D3EE" fill-opacity="0.16"/>
<path d="M594 408C702 354 826 360 920 410C1014 460 1120 446 1120 446" stroke="#5EF1CE" stroke-width="10" stroke-linecap="round" stroke-opacity="0.65"/>
<defs>
<linearGradient id="paint0_linear_1_3" x1="146" y1="66" x2="1084" y2="654" gradientUnits="userSpaceOnUse">
<stop stop-color="#0EA5E9"/>
<stop offset="1" stop-color="#020617"/>
</linearGradient>
<linearGradient id="paint1_linear_1_3" x1="600" y1="36" x2="600" y2="684" gradientUnits="userSpaceOnUse">
<stop stop-color="white" stop-opacity="0.08"/>
<stop offset="1" stop-color="white" stop-opacity="0.03"/>
</linearGradient>
<linearGradient id="paint2_linear_1_3" x1="302" y1="196" x2="302" y2="644" gradientUnits="userSpaceOnUse">
<stop stop-color="#0B1B3B" stop-opacity="0.9"/>
<stop offset="1" stop-color="#060B16" stop-opacity="0.9"/>
</linearGradient>
<linearGradient id="paint3_linear_1_3" x1="845" y1="196" x2="845" y2="404" gradientUnits="userSpaceOnUse">
<stop stop-color="#0A1B33" stop-opacity="0.85"/>
<stop offset="1" stop-color="#091327" stop-opacity="0.9"/>
</linearGradient>
<linearGradient id="paint4_linear_1_3" x1="845" y1="428" x2="845" y2="644" gradientUnits="userSpaceOnUse">
<stop stop-color="#0C1D38" stop-opacity="0.85"/>
<stop offset="1" stop-color="#081120" stop-opacity="0.9"/>
</linearGradient>
<radialGradient id="paint5_radial_1_3" cx="0" cy="0" r="1" gradientUnits="userSpaceOnUse" gradientTransform="translate(724 300) rotate(90) scale(80)">
<stop stop-color="#22D3EE" stop-opacity="0.65"/>
<stop offset="1" stop-color="#020617" stop-opacity="0"/>
</radialGradient>
<radialGradient id="paint6_radial_1_3" cx="0" cy="0" r="1" gradientUnits="userSpaceOnUse" gradientTransform="translate(940 300) rotate(90) scale(80)">
<stop stop-color="#34D399" stop-opacity="0.6"/>
<stop offset="1" stop-color="#020617" stop-opacity="0"/>
</radialGradient>
</defs>
</svg>
